<svg style="height:30px;width:30px;" class="icon-i87i-svg" viewBox="0 0 1024 1024" version="1.1" xmlns="http://www.w3.org/2000/svg" p-id="1609" width="30" height="30"><path d="M673.5644448 281.66826667L512 447.82933333 351.16373333 281.71377813a44.6464 44.6464 0 0 0-63.6700448-0.50062293 46.1027552 46.1027552 0 0 0-0.50062186 64.6712896L447.82933333 512l-160.83626666 165.84248853c-17.52177813 18.06791147-17.29422187 46.8764448 0.50062186 64.6712896a44.69191147 44.69191147 0 0 0 63.71555627-0.45511146L512 576.17066667l161.5644448 165.93351146a44.78293333 44.78293333 0 0 0 63.7155552 0.4096 45.96622187 45.96622187 0 0 0 0.45511147-64.62577813L576.17066667 512l161.5644448-166.16106667a46.01173333 46.01173333 0 0 0-0.45511147-64.62577813 44.73742187 44.73742187 0 0 0-63.7155552 0.45511147z" fill="#5D6E7F" p-id="1610"></path></svg>