<svg t="1736495784741" viewBox="0 0 1024 1024" version="1.1" xmlns="http://www.w3.org/2000/svg" p-id="2656" width="48" height="48"><path d="M539.7171875 536.1734375m-280.63125 0a280.63125 280.63125 0 1 0 561.2625 0 280.63125 280.63125 0 1 0-561.2625 0Z" fill="#56E5BE" p-id="2657"></path><path d="M567.940625 564.3546875m-252.45 0a252.45 252.45 0 1 0 504.9 0 252.45 252.45 0 1 0-504.9 0Z" fill="#50DDB8" p-id="2658"></path><path d="M596.7546875 584.9421875m-219.5015625 0a219.5015625 219.5015625 0 1 0 439.003125 0 219.5015625 219.5015625 0 1 0-439.003125 0Z" fill="#42D3AD" p-id="2659"></path><path d="M512.590625 165.1765625c-13.9640625 0-25.3125 11.3484375-25.3125 25.3125s11.3484375 25.3125 25.3125 25.3125c162.253125 0 294.2578125 132.0046875 294.2578125 294.2578125s-132.0046875 294.2578125-294.2578125 294.2578125S218.3328125 672.3125 218.3328125 510.059375c0-88.171875 38.6015625-169.7625 104.9203125-225.28125v55.6453125c0 13.9640625 11.3484375 25.3125 25.3125 25.3125s25.3125-11.3484375 25.3125-25.3125V219.640625c0-13.9640625-11.3484375-25.3125-25.3125-25.3125h-115.59375c-13.9640625 0-25.3125 11.3484375-25.3125 25.3125s11.3484375 25.3125 25.3125 25.3125h58.978125C213.4390625 310.0484375 167.7078125 406.1515625 167.7078125 510.059375c0 190.18125 154.7015625 344.8828125 344.8828125 344.8828125s344.8828125-154.7015625 344.8828125-344.8828125-154.74375-344.8828125-344.8828125-344.8828125z" fill="#515151" p-id="2660"></path><path d="M617.6796875 579.7109375H474.36875c-13.9640625 0-25.3125-11.3484375-25.3125-25.3125V423.9546875c0-13.9640625 11.3484375-25.3125 25.3125-25.3125s25.3125 11.3484375 25.3125 25.3125v105.13125h117.9984375c13.9640625 0 25.3125 11.3484375 25.3125 25.3125s-11.3484375 25.3125-25.3125 25.3125z" fill="#515151" p-id="2661"></path></svg>