<svg t="1735570722474" class="icon" viewBox="0 0 1024 1024" version="1.1" xmlns="http://www.w3.org/2000/svg" p-id="7538" width="64" height="64"><path d="M143.1552 722.0224s-2.56-1.536-7.7824-4.096l4.096-7.2704c4.608 2.56 7.2704 4.096 7.2704 4.096l-3.584 7.2704z m-22.7328-12.9024c-4.608-2.56-9.3184-6.2464-14.4384-9.3184l4.608-7.2704c5.12 3.584 9.8304 6.7584 13.9264 9.3184l-4.096 7.2704z m-28.3648-19.6608c-4.608-3.072-8.8064-6.7584-13.4144-10.8544l5.632-6.7584c4.608 3.584 8.8064 7.2704 13.4144 10.3424l-5.632 7.2704z m-26.8288-22.2208c-4.096-4.096-8.2944-7.7824-12.3904-12.3904l6.2464-5.632c4.096 4.096 7.7824 8.2944 11.8784 11.8784l-5.7344 6.144z m-23.7568-25.2928c-3.584-4.608-7.2704-9.3184-10.3424-13.9264l7.2704-4.608c3.072 4.608 6.2464 8.8064 9.8304 13.4144l-6.7584 5.12z m-19.6608-29.3888c-2.56-5.7344-5.12-10.8544-6.7584-16.4864l8.2944-2.56c1.536 5.12 3.584 10.3424 6.2464 14.9504l-7.7824 4.096z m-10.8544-33.5872c-0.512-4.096-1.024-8.2944-1.024-12.3904v-5.632l8.2944 0.512v5.12c0 3.584 0.512 7.2704 1.024 10.8544l-8.2944 1.536z m10.8544-33.0752l-8.2944-2.56c1.536-5.7344 3.584-11.3664 6.7584-16.4864l7.7824 3.584c-3.1744 5.12-5.2224 10.24-6.2464 15.4624z m815.616-19.6608h-16.9984v-8.2944h16.4864l0.512 8.2944z m17.1008-0.512v-8.2944c5.7344 0 11.3664 0 16.9984-0.512l0.512 8.2944c-5.632 0.512-11.3664 0.512-17.5104 0.512z m-51.2 0c-5.632 0-11.3664-0.512-16.9984-0.512l0.512-8.2944c5.632 0 11.3664 0.512 16.9984 0.512l-0.512 8.2944z m85.8112-1.024l-0.512-8.2944c5.632-0.512 11.3664-0.512 16.9984-1.024l0.512 8.2944c-5.12 0.512-11.3664 0.512-16.9984 1.024z m-120.32-0.512c-5.7344-0.512-11.3664-0.512-16.9984-1.024l0.512-8.2944c5.7344 0.512 11.3664 0.512 17.1008 1.024l-0.6144 8.2944z m-34.0992-2.048c-5.632-0.512-11.3664-1.024-16.9984-1.024l0.512-8.2944c5.632 0.512 11.3664 1.024 16.9984 1.024l-0.512 8.2944z m189.0304-0.512l-1.024-8.2944c5.7344-0.512 11.3664-1.536 16.4864-2.56l1.536 8.2944c-5.632 1.024-11.3664 2.048-16.9984 2.56z m-223.1296-2.048l-17.1008-1.536 1.024-8.2944 16.9984 1.536-0.9216 8.2944z m-663.8592-1.024l-5.7344-6.2464c3.584-3.584 8.8064-7.2704 14.4384-10.3424l4.608 7.2704c-5.5296 3.072-9.6256 6.144-13.312 9.3184z m629.248-2.1504l-16.9984-1.536 1.024-8.2944 16.9984 1.536-1.024 8.2944z m291.84-0.512l-2.048-8.2944c5.7344-1.536 11.3664-2.56 15.9744-4.096l2.56 8.2944c-4.608 1.536-10.3424 3.072-16.4864 4.096z m-325.9392-3.072c-5.7344-0.512-11.3664-1.536-17.1008-2.048l1.024-8.2944c5.632 0.512 11.3664 1.536 16.9984 2.048l-0.9216 8.2944z m-34.0992-4.096c-5.632-0.512-11.3664-1.536-16.9984-2.048l1.024-8.2944c5.7344 0.512 11.3664 1.536 17.1008 2.048l-1.1264 8.2944z m393.1136-4.1984l-4.096-7.7824c5.12-2.56 9.3184-5.7344 12.3904-9.3184l6.2464 5.7344c-3.1744 4.7104-7.8848 8.2944-14.5408 11.3664z m-426.7008-0.512c-5.632-1.024-11.3664-1.536-16.9984-2.56l1.024-8.2944c5.632 1.024 11.3664 1.536 16.9984 2.56l-1.024 8.2944z m-499.5072-3.072l-3.584-7.7824c5.12-2.56 10.3424-4.608 15.9744-6.7584l3.072 7.7824c-5.7344 2.6624-10.8544 4.7104-15.4624 6.7584z m465.408-2.048c-5.7344-1.024-11.3664-1.536-17.1008-2.56l1.536-8.2944c5.632 1.024 11.3664 2.048 16.9984 2.56l-1.4336 8.2944z m-34.0992-5.7344l-16.9984-3.072 1.536-8.2944 17.1008 3.072-1.6384 8.2944z m-399.872-4.608l-3.072-8.2944c5.12-2.048 10.8544-3.584 16.4864-5.12l2.56 8.2944c-5.632 1.536-10.752 3.072-15.9744 5.12z m366.2848-1.024l-16.9984-3.072 1.536-8.2944 16.9984 3.072-1.536 8.2944z m-33.5872-6.7584c-5.7344-1.024-11.3664-2.048-17.1008-3.584l1.536-8.2944c5.632 1.024 11.3664 2.048 16.4864 3.584l-0.9216 8.2944zM128.7168 478.208l-2.048-8.2944c5.12-1.536 10.8544-3.072 16.4864-4.608l2.048 8.2944c-5.632 1.536-11.264 3.072-16.4864 4.608z m875.6224-2.56v-1.024c-0.512-4.096-2.048-8.2944-5.12-12.3904l6.7584-5.12c3.584 5.12 6.2464 10.8544 6.7584 16.4864v1.536l-8.3968 0.512zM395.264 474.112c-5.7344-1.024-11.3664-2.56-16.4864-3.584l2.048-8.2944c5.632 1.024 10.8544 2.56 16.4864 3.584l-2.048 8.2944z m-233.984-4.1984l-1.536-8.2944c5.632-1.536 10.8544-2.56 16.4864-4.096l2.048 8.2944c-5.632 1.536-11.264 2.56-16.9984 4.096z m200.3968-3.584c-5.632-1.536-11.3664-2.56-16.4864-4.096l2.048-8.2944c5.632 1.536 10.8544 2.56 16.4864 4.096l-2.048 8.2944z m-166.8096-4.096l-1.536-8.2944c5.7344-1.024 11.3664-2.048 17.1008-3.584l1.536 8.2944c-6.2464 1.4336-11.4688 2.56-17.1008 3.584z m133.2224-4.1984c-5.632-1.536-11.3664-3.072-16.4864-4.096l2.048-8.2944c5.7344 1.536 10.8544 3.072 16.4864 4.096l-2.048 8.2944z m-99.6352-2.56l-1.536-8.2944 16.9984-3.072 1.536 8.2944c-6.144 1.024-11.8784 2.048-16.9984 3.072z m759.296-3.584c-4.096-2.56-8.8064-5.12-14.4384-7.7824l3.584-7.7824c5.7344 2.56 11.3664 5.7344 15.4624 8.2944l-4.608 7.2704z m-725.7088-2.56l-1.536-8.2944c5.632-1.024 11.3664-2.048 16.9984-2.56l1.024 6.2464 2.56-8.2944c4.608 1.536 9.3184 2.56 14.4384 4.096l-1.024-4.608c5.632-1.024 11.3664-1.536 16.9984-2.56l1.024 8.2944c-5.7344 1.024-10.8544 1.536-15.9744 2.56l-1.536 5.12c-5.632-1.536-10.8544-3.072-16.4864-4.608l0.512 2.048c-5.632 0.9216-11.3664 1.9456-16.9984 2.56z m0-9.8304c-5.7344-1.536-10.8544-3.584-16.4864-5.12l2.56-8.2944c5.12 1.536 10.8544 3.584 15.9744 5.12l-2.048 8.2944z m67.6864-0.512l-1.024-8.2944c5.7344-1.024 11.3664-1.536 16.9984-2.048l1.024 8.2944c-5.632 0.4096-11.3664 1.536-16.9984 2.048z m628.1216-1.024c-5.12-1.536-10.3424-3.072-15.9744-4.608l2.048-8.2944c5.632 1.536 11.3664 3.072 16.4864 5.12l-2.56 7.7824z m-594.6368-3.1744l-1.024-8.2944c5.632-0.512 11.3664-1.536 16.9984-2.048l1.024 8.2944c-5.632 0.512-11.264 1.024-16.9984 2.048z m34.0992-4.096l-1.024-8.2944c5.7344-0.512 11.3664-1.024 17.1008-2.048l1.024 8.2944c-5.7344 1.024-11.3664 1.536-17.1008 2.048z m527.9744-1.536c-5.12-1.024-10.8544-2.048-16.4864-3.072l1.536-8.2944 16.9984 3.072-2.048 8.2944z m-695.808 0c-5.632-2.048-10.8544-3.584-15.9744-5.632l3.072-7.7824c5.12 2.048 10.3424 3.584 15.9744 5.632l-3.072 7.7824z m201.9328-2.048l-1.024-8.2944 16.9984-1.536 1.024 8.2944-16.9984 1.536z m34.0992-3.1744l-1.024-8.8064 16.9984-1.536 0.512 8.2944c-5.12 1.024-10.752 1.536-16.4864 2.048z m426.1888-0.512c-5.7344-1.024-10.8544-1.536-16.9984-2.048l1.024-8.2944c5.7344 0.512 11.3664 1.536 17.1008 2.048l-1.1264 8.2944zM499.6096 420.864l-0.512-8.2944c5.7344-0.512 11.3664-1.024 16.9984-1.024l0.512 8.2944c-5.632 0.512-11.264 1.024-16.9984 1.024z m358.5024-1.536l-16.9984-1.536 0.512-8.2944 16.9984 1.536-0.512 8.2944z m-324.4032-0.512l-0.512-8.2944c5.632-0.512 11.3664-0.512 16.9984-1.024l0.512 8.2944c-5.632 0-11.264 0.512-16.9984 1.024z m-336.7936-1.536c-5.632-2.56-10.8544-4.608-15.9744-6.7584l3.072-7.7824c5.12 2.048 10.3424 4.096 15.4624 6.7584l-2.56 7.7824z m370.8928-0.512l-0.512-8.2944c5.7344-0.512 11.3664-0.512 17.1008-1.024l0.512 8.2944c-5.7344 0.512-11.3664 0.512-17.1008 1.024z m256.2048-0.512c-5.7344-0.512-11.3664-0.512-17.1008-1.024l0.512-8.2944c5.7344 0.512 11.3664 0.512 16.9984 1.024l-0.4096 8.2944zM601.9072 414.72l-0.512-8.2944c5.632 0 11.3664-0.512 16.9984-0.512l0.512 8.2944c-5.632 0.512-11.264 0.512-16.9984 0.512z m188.0064-0.6144c-5.632 0-11.3664-0.512-16.9984-0.512l0.512-8.2944c5.632 0 11.3664 0.512 16.9984 0.512l-0.512 8.2944z m-153.9072-0.512v-8.2944c5.7344 0 11.3664-0.512 17.1008-0.512v8.2944c-5.7344 0-11.3664 0.512-17.1008 0.512z m119.808-0.512c-5.632 0-11.3664 0-16.9984-0.512v-8.2944c5.7344 0 11.3664 0 16.9984 0.512v8.2944z m-85.1968-0.512v-8.2944h16.9984v8.2944h-16.9984z m51.0976 0h-17.1008v-8.2944h17.1008v8.2944z m-556.3392-9.216c-5.12-2.56-10.8544-5.12-15.4624-7.7824l4.096-7.7824c4.608 2.56 9.8304 5.12 14.9504 7.7824l-3.584 7.7824z m-30.9248-16.0768c-5.12-3.072-10.3424-6.2464-14.4384-9.3184l5.12-6.7584c4.096 3.072 8.8064 6.2464 13.9264 9.3184l-4.608 6.7584zM105.984 366.592c-4.608-4.096-8.8064-8.8064-11.8784-12.9024l6.7584-5.12c3.072 4.096 6.7584 7.7824 10.8544 11.8784l-5.7344 6.144z m-20.1728-28.8768c-1.024-3.584-1.536-6.7584-1.536-10.3424 0-3.072 0.512-5.632 1.024-8.8064l8.2944 2.048c-0.512 2.048-0.512 4.096-0.512 6.7584 0 2.56 0.512 5.12 1.024 7.7824l-8.2944 2.56zM100.864 306.176l-7.2704-4.608c3.072-5.12 6.7584-9.8304 10.3424-14.4384l6.7584 5.12c-3.6864 5.12-7.2704 9.3184-9.8304 13.9264z m768.1024-16.4864c-5.632-0.512-11.3664-0.512-16.9984-1.024l0.512-8.2944c5.632 0.512 11.3664 1.024 16.9984 1.024l-0.512 8.2944z m-34.6112-2.6624l-17.1008-1.536 1.024-8.2944 16.9984 1.536-0.9216 8.2944z m-34.0992-4.096c-5.632-0.512-11.3664-1.536-16.9984-2.048l1.024-8.2944c5.632 0.512 11.3664 1.536 16.9984 2.048l-1.024 8.2944z m-678.7072-2.56l-6.2464-6.2464c4.096-4.096 8.2944-8.2944 12.9024-11.8784l5.12 6.7584c-4.096 4.096-8.192 7.7824-11.776 11.3664z m645.12-2.048c-5.632-1.024-11.3664-1.536-16.9984-2.56l1.024-8.2944c5.632 1.024 11.3664 1.536 16.9984 2.56l-1.024 8.2944z m-34.0992-4.7104l-17.1008-2.56 1.536-8.2944 16.9984 2.56-1.4336 8.2944z m-34.0992-5.632l-16.9984-2.56 1.536-8.2944 17.1008 2.56-1.6384 8.2944z m-33.4848-5.7344l-16.9984-3.072 1.536-8.2944 16.9984 3.072-1.536 8.2944z m-517.632-2.56l-4.608-7.2704c4.608-3.072 9.8304-6.2464 14.9504-8.8064l4.096 7.7824c-5.12 2.6624-9.8304 5.2224-14.4384 8.2944z m484.0448-3.072l-17.1008-3.072 1.536-8.2944 16.9984 3.072-1.4336 8.2944z m-34.0992-6.2464l-16.9984-3.072 1.536-8.2944 17.1008 3.072-1.6384 8.2944z m-33.5872-5.632l-16.9984-2.56 1.536-8.2944 16.9984 2.56-1.536 8.2944z m-386.9696-0.512l-3.072-7.7824c5.12-2.048 10.8544-4.096 15.9744-6.2464l2.56 8.2944c-5.12 1.536-10.24 3.6864-15.4624 5.7344z m352.8704-4.7104c-5.7344-1.024-11.3664-1.536-17.1008-2.56l1.024-8.2944c5.7344 1.024 11.3664 1.536 16.9984 2.56l-0.9216 8.2944z m-33.5872-5.12c-5.632-1.024-11.3664-1.536-16.9984-2.56l1.024-8.2944c5.7344 0.512 11.3664 1.536 17.1008 2.56l-1.1264 8.2944z m-287.232-1.024l-2.048-8.2944c5.632-1.536 11.3664-3.072 16.9984-4.096l1.536 8.2944c-5.632 1.024-11.264 2.56-16.4864 4.096z m253.6448-3.584c-5.632-0.512-11.3664-1.536-16.9984-2.048l1.024-8.2944c5.632 0.512 11.3664 1.536 16.9984 2.048l-1.024 8.2944z m-220.5696-3.6864l-1.536-8.2944c5.7344-1.024 11.3664-1.536 17.1008-2.56l1.024 8.2944c-5.7344 0.512-11.4688 1.536-16.5888 2.56z m186.4704 0l-17.1008-1.536 1.024-8.2944 16.9984 1.536-0.9216 8.2944z m-34.0992-3.072c-5.632-0.512-11.3664-1.024-16.9984-1.024l0.512-8.2944c5.632 0.512 11.3664 0.512 16.9984 1.024l-0.512 8.2944z m-118.784-1.024l-0.512-8.2944c5.632-0.512 11.3664-1.024 16.9984-1.024l0.512 8.2944c-6.144 0-11.8784 0.512-16.9984 1.024z m84.6848-1.024c-5.632 0-11.3664-0.512-16.9984-0.512v-8.2944c5.7344 0 11.3664 0.512 16.9984 0.512v8.2944z m-51.0976-1.024v-8.2944h16.9984v8.2944h-16.9984z m585.728 70.7584h-8.8064l0.512-8.2944h8.2944v8.2944z m0 0" fill="#CCE1FF" p-id="7539"></path><path d="M677.376 592.384l-324.4032 1.024c-3.072 0-6.2464-2.56-6.2464-6.2464v-7.7824c0-3.072 2.56-6.2464 6.2464-6.2464l324.4032-1.024c3.072 0 6.2464 2.56 6.2464 6.2464v7.7824c-0.6144 3.6864-3.1744 6.2464-6.2464 6.2464z m0 0" fill="#E6EFFF" p-id="7540"></path><path d="M863.8464 323.2768c-38.1952-42.9056-92.4672-99.7376-144.0768-160.6656l-287.232 1.024-2.048 39.7312 36.1472 25.2928-34.0992 8.2944 34.0992 30.0032-27.3408 4.608-21.1968 53.248-19.1488-25.2928-36.1472-19.1488 23.2448-27.8528-47.104-21.1968 30.0032-21.1968-25.2928-45.9776-124.5184 0.512c-23.2448 0-41.8816 19.1488-41.8816 42.3936l1.536 389.5296c0 23.2448 19.1488 41.8816 42.3936 41.8816l602.3168-1.536c23.2448 0 41.8816-19.1488 41.8816-42.3936l-1.536-271.2576z m0 0" fill="#FFFFFF" p-id="7541"></path><path d="M220.16 640.9216c-11.8784 0-23.2448-4.608-32.0512-13.4144-8.8064-8.8064-13.4144-20.1728-13.4144-32.0512l-1.536-389.5296c0-11.8784 4.608-23.2448 12.9024-32.0512 8.8064-8.8064 20.1728-13.4144 32.0512-13.4144l126.5664-0.512 27.8528 50.0736-27.8528 19.6608 45.4656 20.6848-23.7568 27.8528 33.5872 18.1248 15.9744 21.1968 19.6608-49.5616 22.7328-3.584-33.5872-29.4912 33.0752-8.2944-32.0512-22.7328 2.048-44.9536 291.84-1.024 1.024 1.024c34.0992 40.2432 69.2224 78.5408 100.2496 112.64 15.9744 16.9984 30.5152 33.0752 43.4176 47.5136l1.024 1.024v1.024l1.024 270.6432c0 24.7808-20.1728 45.4656-44.9536 45.4656L220.16 640.9216z m121.4464-474.2144l-122.9824 0.512c-10.3424 0-20.1728 4.096-27.3408 11.3664-7.2704 7.2704-11.3664 17.1008-11.3664 27.3408l1.536 389.5296c0 10.3424 4.096 20.1728 11.3664 27.3408 7.2704 7.2704 16.9984 11.3664 27.3408 11.3664l602.3168-1.536c21.7088 0 38.7072-17.6128 38.7072-39.2192l-1.024-269.1072c-12.9024-14.4384-27.3408-30.0032-42.3936-47.0016-31.0272-33.5872-65.6384-71.7824-99.7376-111.616l-282.5216 0.512-1.536 35.1232 40.2432 28.3648-35.1232 9.3184 34.6112 30.5152-32.5632 5.12-22.7328 56.832-22.1184-29.9008-39.2192-20.6848 23.2448-27.3408-48.0256-21.7088 32.0512-22.7328-22.7328-42.3936z m0 0" fill="#A2ADC2" p-id="7542"></path><path d="M860.672 318.0544c-1.024 7.7824-7.7824 12.9024-14.9504 12.3904l-137.9328-14.4384c-7.7824-1.024-12.9024-7.7824-12.3904-14.9504l11.3664-125.0304c1.024-7.7824 7.7824-12.9024 14.9504-12.3904l138.9568 154.4192z m0 0" fill="#FFEED4" p-id="7543"></path><path d="M847.2576 333.6192h-1.536l-137.9328-13.9264c-4.608-0.512-8.2944-2.56-11.3664-6.2464-2.56-3.584-4.096-7.7824-3.584-12.3904l11.3664-125.0304c1.024-9.3184 9.3184-15.9744 18.6368-14.9504h1.024l1.024 1.024 139.4688 154.9312v1.536c-1.024 8.8064-8.8064 15.0528-17.1008 15.0528zM720.6912 167.2192c-5.12 0-9.8304 4.096-10.3424 9.3184l-11.3664 125.0304c-0.512 2.56 0.512 5.7344 2.048 7.7824s4.096 3.584 7.2704 3.584l137.9328 14.4384c2.56 0.512 5.7344-0.512 7.7824-2.048s3.072-3.584 3.584-5.7344L720.6912 167.2192z m0 0" fill="#A2ADC2" p-id="7544"></path><path d="M828.7232 864.0512h-629.76c-15.4624 0-28.3648-12.9024-28.3648-28.3648l-42.3936-271.6672c0-15.4624 12.9024-28.3648 28.3648-28.3648h720.0768c15.4624 0 28.3648 12.9024 28.3648 28.3648L857.088 835.6864c-0.512 15.4624-12.9024 28.3648-28.3648 28.3648z m0 0" fill="#FFEED4" p-id="7545"></path><path d="M828.7232 867.2256h-629.76c-17.6128 0-31.5392-13.9264-31.5392-31.5392l-42.3936-271.1552c0-18.1248 13.9264-32.0512 31.5392-32.0512h720.0768c17.5104 0 31.5392 13.9264 31.5392 31.5392L860.16 836.1984c0 16.9984-14.4384 31.0272-31.4368 31.0272zM156.672 538.624c-13.9264 0-25.2928 11.3664-25.2928 25.2928l42.3936 271.1552c0 14.4384 11.3664 25.8048 25.2928 25.8048h629.1456c13.9264 0 25.2928-11.3664 25.2928-25.2928l48.0256-272.2816c0-13.4144-11.3664-24.7808-25.2928-24.7808H156.672z m0 0" fill="#A2ADC2" p-id="7546"></path><path d="M411.3408 671.9488c0 3.584 1.536 7.7824 4.096 10.3424s6.7584 4.096 10.3424 4.096 7.7824-1.536 10.3424-4.096 4.096-6.7584 4.096-10.3424-1.536-7.7824-4.096-10.3424-6.7584-4.096-10.3424-4.096-7.7824 1.536-10.3424 4.096c-2.56 3.072-4.096 6.656-4.096 10.3424z m170.9056 0c0 3.584 1.536 7.7824 4.096 10.3424s6.7584 4.096 10.3424 4.096 7.7824-1.536 10.3424-4.096 4.096-6.7584 4.096-10.3424-1.536-7.7824-4.096-10.3424-6.7584-4.096-10.3424-4.096-7.7824 1.536-10.3424 4.096c-2.4576 3.072-4.096 6.656-4.096 10.3424z m0 0M561.152 757.6576c5.12 0 9.3184-3.072 8.2944-6.7584-4.608-18.1248-27.8528-32.0512-55.808-32.0512-27.8528 0-51.0976 13.9264-55.808 32.0512-1.024 3.584 3.072 6.7584 8.2944 6.7584 4.096 0 7.7824-2.048 8.2944-4.608 3.072-12.9024 19.6608-22.2208 39.2192-22.2208 19.6608 0 35.6352 9.8304 39.2192 22.2208 0.512 2.56 4.096 4.608 8.2944 4.608z m0 0" fill="#A2ADC2" p-id="7547"></path><path d="M33.1776 498.8928c0 71.8848 58.2656 130.1504 130.1504 130.1504 71.8848 0 130.1504-58.2656 130.1504-130.1504s-58.2656-130.1504-130.1504-130.1504c-71.8848 0-130.1504 58.2656-130.1504 130.1504z m0 0" fill="#FFFFFF" p-id="7548"></path><path d="M163.328 632.1152c-73.3184 0-133.3248-59.904-133.3248-133.3248S90.0096 365.568 163.328 365.568s133.3248 59.904 133.3248 133.3248-60.0064 133.2224-133.3248 133.2224z m0-260.3008c-69.7344 0-127.0784 56.832-127.0784 127.0784 0 69.7344 56.832 127.0784 127.0784 127.0784s127.0784-56.832 127.0784-127.0784c0-69.7344-56.832-127.0784-127.0784-127.0784z m0 0" fill="#A2ADC2" p-id="7549"></path><path d="M173.6704 572.2112c-2.56 2.56-6.2464 4.608-9.8304 4.608s-7.2704-1.536-9.8304-4.096-4.096-6.7584-4.096-10.3424 1.536-7.7824 4.096-10.3424 6.2464-4.608 9.8304-4.608 7.2704 1.536 9.8304 4.096 4.096 6.7584 4.096 10.3424-1.536 7.7824-4.096 10.3424z m5.2224-116.736l-6.2464 71.7824c0 5.7344-4.608 9.8304-9.8304 9.8304-5.12 0-9.8304-4.096-10.3424-9.8304l-9.3184-71.7824c-0.512-1.536-0.512-2.56-0.512-4.096 0-10.3424 7.7824-19.1488 18.1248-19.1488s18.6368 8.2944 18.6368 18.6368c0 2.048-0.512 3.584-0.512 4.608z m0 0M643.7888 601.1904c-2.56 0-4.608 2.048-4.608 4.096v32.5632c0 2.56 2.048 4.096 4.608 4.096s4.608-2.048 4.608-4.096v-32.5632c0-2.048-2.048-4.096-4.608-4.096z m19.0464 0c-2.56 0-4.608 2.048-4.608 4.096v32.5632c0 2.56 2.048 4.096 4.608 4.096s4.608-2.048 4.608-4.096v-32.5632c0.1024-2.048-1.9456-4.096-4.608-4.096z m21.1968 0c-2.56 0-4.608 2.048-4.608 4.096v32.5632c0 2.56 2.048 4.096 4.608 4.096s4.608-2.048 4.608-4.096v-32.5632c0.1024-2.048-2.048-4.096-4.608-4.096z m0 0" fill="#A2ADC2" p-id="7550"></path></svg>