<svg style="height:30px;width:30px;" class="icon-i87i-svg" viewBox="0 0 1024 1024" version="1.1" xmlns="http://www.w3.org/2000/svg" p-id="1770" width="30" height="30"><path d="M811.04 468.728a39.72 39.72 0 0 0-27.672-30.36l-10.2-2.28a100.872 100.872 0 0 1-68.856-120.24l3.12-9.552a41.592 41.592 0 0 0-11.424-40.368 281.64 281.64 0 0 0-36.816-24.336c-12.36-7.2-25.224-13.536-38.496-18.912a41.592 41.592 0 0 0-41.592 9.984l-7.08 7.488a100.248 100.248 0 0 1-69.264 27.456 100.464 100.464 0 0 1-68.64-27.672l-6.864-7.272a41.592 41.592 0 0 0-41.592-9.984 294.96 294.96 0 0 0-37.848 18.912c-12.696 7.152-24.792 15.288-36.192 24.336a41.592 41.592 0 0 0-10.824 40.368l2.904 9.552a101.088 101.088 0 0 1-10.8 74.064 96.72 96.72 0 0 1-57.408 45.552l-9.792 2.28a35.352 35.352 0 0 0-26.616 28.488c-1.872 14.352-2.64 28.8-2.28 43.272-0.408 14.736 0.36 29.472 2.28 44.088a39.936 39.936 0 0 0 25.8 31.2l9.552 2.304a99 99 0 0 1 57.624 46.992c12.984 22.392 16.848 48.912 10.8 74.064l-2.064 9.36a41.592 41.592 0 0 0 11.856 40.344c11.136 9.072 22.968 17.28 35.352 24.552 12.312 7.488 25.176 14.016 38.496 19.536 14.64 4.608 30.624 0.768 41.592-9.984l6.648-7.272a101.088 101.088 0 0 1 139.152 0l6.672 7.272a41.592 41.592 0 0 0 41.592 9.984 295.152 295.152 0 0 0 37.224-19.536 271.848 271.848 0 0 0 36.624-24.336c10.944-10.32 15.48-25.752 11.856-40.368l-2.928-9.768a100.872 100.872 0 0 1 69.48-120l9.576-2.304a39.72 39.72 0 0 0 27.648-30.36c1.68-14.376 2.232-28.824 1.68-43.272a291.192 291.192 0 0 0-2.304-43.272z m-307.44 190.944a147.672 147.672 0 1 1 0-295.344 147.672 147.672 0 0 1 0 295.344z" fill="#8a8a8a" p-id="1771"></path></svg>
